<?xml version="1.0" encoding="UTF-8"?>
<svg version="1.1" xmlns="http://www.w3.org/2000/svg" width="500" height="726">
<path d="M0 0 C165 0 330 0 500 0 C500 239.58 500 479.16 500 726 C335 726 170 726 0 726 C0 486.42 0 246.84 0 0 Z " fill="#FEFEFE" transform="translate(0,0)"/>
<path d="M0 0 C10.43474848 4.08107494 19.4994775 11.65129874 24.546875 21.74609375 C26.59547713 27.48217971 26.99013905 33.00418365 26.984375 39.05859375 C26.98501953 39.76201904 26.98566406 40.46544434 26.98632812 41.19018555 C26.93237915 46.50967691 26.18317129 51.1341262 24.796875 56.24609375 C24.796875 57.23609375 24.796875 58.22609375 24.796875 59.24609375 C39.38994864 45.89498383 47.33991484 29.81457594 48.796875 10.24609375 C53.45521619 14.14157468 57.88296274 18.18308281 62.16796875 22.484375 C62.73516129 23.05061081 63.30235382 23.61684662 63.88673401 24.20024109 C65.07016673 25.38299954 66.25236273 26.56699663 67.43334961 27.75219727 C69.25064736 29.57491464 71.07330525 31.39215184 72.89648438 33.20898438 C74.04980047 34.36296022 75.20280691 35.51724565 76.35546875 36.671875 C76.90222763 37.21660965 77.44898651 37.7613443 78.01231384 38.32258606 C81.796875 42.13110474 81.796875 42.13110474 81.796875 43.24609375 C80.99765625 43.33246094 80.1984375 43.41882813 79.375 43.5078125 C60.56066416 45.91481086 46.078497 55.22351048 32.796875 68.24609375 C33.75207031 68.02953125 34.70726562 67.81296875 35.69140625 67.58984375 C49.85396886 64.48574564 62.25714435 63.83263537 75.6640625 70.71875 C85.20968422 76.85522111 91.24181209 86.23966892 93.796875 97.24609375 C95.27725295 108.60074526 92.24259111 120.00635686 85.4921875 129.25 C78.56868173 137.40186969 69.36388404 143.46673713 58.53515625 144.58203125 C44.6699865 144.74012897 34.79191703 140.53981631 24.5703125 131.21484375 C19.15226652 125.614167 16.36603292 119.54596072 13.796875 112.24609375 C13.66732422 113.86064453 13.66732422 113.86064453 13.53515625 115.5078125 C12.11948913 130.99289587 8.17728638 142.86568237 -3.015625 154.05859375 C-12.8344521 160.79700451 -23.52145848 162.15353174 -35.203125 161.24609375 C-47.4638064 158.27432194 -57.90222048 149.58678249 -64.5859375 139.0703125 C-70.21787611 128.32791109 -70.45231457 117.65713346 -67.23828125 106.1015625 C-63.71507214 96.38282341 -56.51400267 89.20501984 -47.390625 84.55859375 C-39.40458553 81.14246922 -30.70164146 79.8225025 -22.203125 78.24609375 C-22.80898437 77.98957031 -23.41484375 77.73304688 -24.0390625 77.46875 C-35.9735566 72.01560423 -43.95163278 63.88065406 -49.23046875 51.91796875 C-52.37443954 43.16700857 -52.81531703 32.65623289 -49.640625 23.87109375 C-43.98859576 11.93242147 -35.19321536 5.09685645 -23.203125 0.24609375 C-17.2608074 -2.72506505 -6.37429815 -1.50029213 0 0 Z " fill="#010101" transform="translate(167.203125,366.75390625)"/>
<path d="M0 0 C4.99110512 1.76034828 9.36076108 4.01250996 13.57421875 7.24609375 C14.54359375 7.92671875 15.51296875 8.60734375 16.51171875 9.30859375 C30.49309911 21.56975192 32.23827433 42.49955029 33.38134766 59.90478516 C33.60695358 63.81319361 33.80245578 67.72252476 33.9921875 71.6328125 C35.46348185 101.74768898 38.53324592 129.30833095 50.57421875 157.24609375 C46.67396677 156.00121098 42.9863865 154.56363452 39.26171875 152.87109375 C15.08184391 142.77139173 -13.67484383 141.79766074 -39.50219727 140.95849609 C-59.25942156 140.28093251 -81.40288083 139.03636243 -96.23828125 124.62890625 C-104.53813511 115.58799401 -109.17414506 105.416777 -108.6796875 93.0234375 C-107.54017845 80.55896163 -101.46058771 70.75289204 -92.42578125 62.24609375 C-85.23363018 56.59511791 -79.17432929 53.83976644 -69.92578125 53.80859375 C-69.1363916 53.80472656 -68.34700195 53.80085938 -67.53369141 53.796875 C-60.06304287 53.94202421 -54.1415431 55.92380874 -47.42578125 59.24609375 C-47.77511719 58.41464844 -48.12445313 57.58320313 -48.484375 56.7265625 C-48.93941406 55.63988281 -49.39445312 54.55320313 -49.86328125 53.43359375 C-50.31574219 52.35464844 -50.76820313 51.27570313 -51.234375 50.1640625 C-54.46481883 42.25212303 -54.83794737 33.14354826 -51.98828125 24.99609375 C-46.37225462 12.93056658 -35.39660341 5.08906122 -23.42578125 0.24609375 C-17.38221124 -2.77569126 -6.48070587 -1.42619867 0 0 Z " fill="#DF0101" transform="translate(186.42578125,187.75390625)"/>
<path d="M0 0 C-0.26409668 1.02488525 -0.52819336 2.04977051 -0.80029297 3.10571289 C-3.40893845 13.5142068 -5.032022 23.77342925 -6.125 34.4375 C-6.29178508 35.98481091 -6.45960102 37.53201102 -6.62841797 39.07910156 C-6.95321524 42.06958269 -7.27271923 45.06053005 -7.5859375 48.05224609 C-8.08251355 52.78670052 -8.5988291 57.5187572 -9.125 62.25 C-9.20137695 62.93803711 -9.27775391 63.62607422 -9.35644531 64.33496094 C-10.12902086 71.24049306 -10.98397243 78.12605855 -12 85 C-12.12068848 85.84691406 -12.24137695 86.69382812 -12.36572266 87.56640625 C-15.27149863 107.55196095 -19.21666755 130.71979939 -35.578125 144.30859375 C-42.39404891 149.06874706 -50.71140066 151.7756337 -59.05859375 150.74609375 C-66.21202362 149.19827559 -74.26664362 145.71575111 -79 140 C-87.73567399 125.27005791 -86.16842068 111.44134813 -85 95 C-96.28488627 111.25182564 -104.79126033 129.2644722 -111 148 C-116.05693059 143.76276022 -120.80841147 139.33908375 -125.46484375 134.66796875 C-126.14301651 133.99075272 -126.82118927 133.31353668 -127.51991272 132.61579895 C-128.93873833 131.19764898 -130.35632147 129.77825494 -131.77270508 128.35766602 C-133.95214752 126.17281614 -136.13694282 123.99341969 -138.32226562 121.81445312 C-139.7034462 120.43261264 -141.08431702 119.05046246 -142.46484375 117.66796875 C-143.44903542 116.68681343 -143.44903542 116.68681343 -144.45310974 115.68583679 C-149 111.11498108 -149 111.11498108 -149 110 C-148.175 109.79246094 -147.35 109.58492188 -146.5 109.37109375 C-133.25616214 105.83841825 -121.30296165 100.42262629 -109.3125 93.8125 C-108.55807617 93.39661621 -107.80365234 92.98073242 -107.02636719 92.55224609 C-103.04867772 90.30839824 -99.54108592 87.90720437 -96 85 C-97.27677612 85.0314209 -97.27677612 85.0314209 -98.5793457 85.06347656 C-101.79056666 85.13236162 -105.00140643 85.18214051 -108.21313477 85.21972656 C-109.593145 85.2396267 -110.97307337 85.2667574 -112.3527832 85.30175781 C-122.58668383 85.5545385 -130.93655571 84.63806657 -139.8125 79.3125 C-146.60170412 72.13534136 -150.96060315 63.95329886 -151.4375 54 C-151.26408394 48.6819076 -149.55341613 44.60686266 -147 40 C-146.46375 39.01 -145.9275 38.02 -145.375 37 C-131.12241132 18.99673009 -108.55371907 15.31776304 -87.02734375 12.04296875 C-85.90599533 11.87156876 -84.78464691 11.70016876 -83.62931824 11.52357483 C-69.91404195 9.47599505 -56.13485742 8.03206407 -42.34741211 6.57006836 C-28.8564656 5.13117373 -13.26504969 0 0 0 Z " fill="#010101" transform="translate(415,218)"/>
<path d="M0 0 C4.33536827 1.43381802 8.66673909 2.87421881 12.97265625 4.39453125 C39.79897003 13.76359431 66.19118199 18.21007142 94.5625 18.125 C95.85607422 18.12886719 97.14964844 18.13273437 98.48242188 18.13671875 C107.03910738 18.12814062 115.47556904 17.72516717 124 17 C123.93071289 17.71148193 123.86142578 18.42296387 123.79003906 19.15600586 C122.89886941 29.2926642 122.75802976 39.39185845 122.75 49.5625 C122.74899292 50.45084534 122.74798584 51.33919067 122.74694824 52.25445557 C122.75620021 64.32310819 122.97612239 76.10682552 125.55566406 87.94775391 C126.007694 90.03553615 126.39421614 92.1283473 126.7734375 94.23046875 C129.26359233 107.27758108 133.7476343 119.72590567 138.1237793 132.23950195 C138.94223529 134.8180146 139.52785477 137.33867977 140 140 C134.04269498 138.25733269 128.13939002 136.40190991 122.2644043 134.39941406 C100.9086927 127.12215557 79.93977143 122.79651049 57.33203125 122.90234375 C55.59079231 122.90446617 55.59079231 122.90446617 53.81437683 122.90663147 C50.1470571 122.91217942 46.47980093 122.92472195 42.8125 122.9375 C40.30924568 122.94252174 37.80599039 122.94708346 35.30273438 122.95117188 C29.20180163 122.96213174 23.10090536 122.97881713 17 123 C17.10284302 121.82123291 17.10284302 121.82123291 17.20776367 120.61865234 C20.55716641 78.76461168 16.25214191 39.0913262 0 0 Z " fill="#DF0101" transform="translate(282,397)"/>
<path d="M0 0 C165 0 330 0 500 0 C500 239.58 500 479.16 500 726 C335 726 170 726 0 726 C0 486.42 0 246.84 0 0 Z M6 8 C1.498876 14.12192468 1.4328471 19.23882726 1.49663544 26.69306087 C1.49082167 27.87216072 1.48500791 29.05126057 1.47901797 30.26609072 C1.466931 33.54060047 1.47275884 36.81451469 1.48612978 40.08900142 C1.49627506 43.65071671 1.48323757 47.21235956 1.47315645 50.7740646 C1.45870316 57.01698159 1.45915188 63.25976025 1.46934509 69.50268364 C1.48446155 78.7860829 1.4767471 88.06936526 1.46451186 97.35276371 C1.44343458 113.93217354 1.44528021 130.51152177 1.45682751 147.09093748 C1.46688365 161.60034069 1.46951939 176.1097213 1.46473694 190.61912727 C1.4644314 191.58099611 1.46412586 192.54286495 1.46381106 193.53388132 C1.46256573 197.43828059 1.46129214 201.34267985 1.459972 205.24707909 C1.44773142 241.88597349 1.45883693 278.52482863 1.48035959 315.16371698 C1.49934101 347.72415593 1.4976453 380.2845323 1.47851562 412.8449707 C1.45710234 449.41468375 1.44860098 485.9843621 1.46096468 522.55408055 C1.46224758 526.45173934 1.46349893 530.34939815 1.46473694 534.24705696 C1.46505325 535.20678166 1.46536956 536.16650636 1.46569545 537.15531362 C1.47024766 551.65586859 1.46491989 566.1563985 1.45481873 580.65695 C1.44339145 597.14352216 1.44622007 613.630023 1.4679417 630.11658626 C1.47970091 639.34650927 1.48043342 648.57627789 1.465357 657.80619695 C1.45640031 663.9685795 1.46194634 670.13083804 1.47937608 676.29320219 C1.48890729 679.80626789 1.49211192 683.31902646 1.47775215 686.83208268 C1.46564796 690.61538572 1.47800437 694.39783979 1.49663544 698.18109798 C1.48727077 699.27310102 1.47790611 700.36510406 1.46825767 701.49019811 C1.53095546 707.82886295 2.29704093 712.73381515 6 718 C8.37842577 720.40406384 8.37842577 720.40406384 11 722 C11.55080317 722.35820945 12.10160635 722.71641891 12.66910052 723.08548319 C16.01090832 724.39662485 19.25766673 724.27692459 22.79439163 724.25726891 C23.98549043 724.26252802 23.98549043 724.26252802 25.20065182 724.26789337 C27.87791633 724.27724298 30.55496501 724.27227491 33.23223877 724.26742554 C35.16452263 724.27116001 37.09680498 724.27576072 39.02908492 724.28115618 C44.35195795 724.29342681 49.67476833 724.29312094 54.99765229 724.29076743 C60.73331316 724.29036029 66.46895366 724.30138865 72.2046051 724.31088257 C83.44705789 724.32751607 94.6894897 724.33299319 105.93195376 724.33410732 C115.06842621 724.33505674 124.20489174 724.33916168 133.341362 724.34550858 C155.01559079 724.36025928 176.68981361 724.3725576 198.364048 724.37151146 C199.40414148 724.37146472 199.40414148 724.37146472 200.46524694 724.37141704 C203.97976155 724.37125082 207.49427616 724.37105274 211.00879076 724.37084763 C211.70680053 724.37080774 212.40481029 724.37076785 213.12397187 724.37072675 C214.5355187 724.37064587 215.94706554 724.37056228 217.35861237 724.37047596 C239.31836572 724.36925054 261.2780573 724.38426079 283.23779297 724.41162109 C307.90304166 724.44233953 332.56824822 724.45952837 357.23351741 724.45769465 C370.29555106 724.45703003 383.35751506 724.46255378 396.41953278 724.48405075 C407.54094407 724.50223622 418.66225415 724.50663159 429.78367385 724.4930319 C435.45956045 724.48648882 441.13525272 724.48643344 446.81112099 724.5037384 C452.00625326 724.51941493 457.20103626 724.51666092 462.39615974 724.49917014 C464.27638695 724.49608827 466.15663988 724.49977708 468.03683677 724.51089029 C470.59239562 724.52499585 473.14672668 724.51443785 475.7022438 724.49777794 C476.43252232 724.5077143 477.16280083 724.51765066 477.915209 724.52788812 C484.02616194 724.44364294 489.43341248 722.53389214 493.83984375 718.18359375 C494.20207031 717.60738281 494.56429688 717.03117188 494.9375 716.4375 C495.31777344 715.85871094 495.69804687 715.27992188 496.08984375 714.68359375 C497.83982593 711.44650225 498.12615875 708.78473919 498.1311025 705.18140018 C498.13677947 703.68040897 498.13677947 703.68040897 498.14257112 702.1490947 C498.14165919 701.04452829 498.14074726 699.93996187 498.1398077 698.80192375 C498.14275912 697.62773888 498.14571055 696.453554 498.14875141 695.24378777 C498.15595505 691.9646053 498.15864964 688.68545389 498.15947436 685.40626471 C498.16144032 681.84622943 498.16911448 678.28620577 498.17604691 674.72617733 C498.18888001 667.65626298 498.19625035 660.58635229 498.20194569 653.51642899 C498.20899672 645.05173024 498.22175498 636.58704246 498.23449489 628.12235071 C498.26636783 606.68858986 498.28618414 585.25482173 498.30378041 563.8210451 C498.30854707 558.01722412 498.31355592 552.21340337 498.31858563 546.40958261 C498.34962943 510.39628316 498.37625248 474.38298187 498.39300442 438.36967278 C498.39694178 430.02379223 498.40095359 421.67791173 498.4050293 413.33203125 C498.40553096 412.29514107 498.40603263 411.25825089 498.4065495 410.18993979 C498.42297118 376.56410323 498.46143234 342.93833939 498.5123164 309.31253861 C498.56451501 274.75514928 498.59731561 240.19779868 498.60458195 205.64036911 C498.60561058 200.76143748 498.6068469 195.88250592 498.60820198 191.00357437 C498.60846002 190.0433311 498.60871806 189.08308782 498.60898391 188.09374626 C498.61368254 172.6278706 498.63863252 157.16209064 498.67095341 141.69625082 C498.70295715 126.15579687 498.71297269 110.6154509 498.70052146 95.07496791 C498.6937751 85.83852035 498.70377359 76.60244321 498.73764846 67.36605342 C498.75862211 61.19792965 498.7578412 55.03005728 498.73931505 48.86192629 C498.72937675 45.34619828 498.72893355 41.83117691 498.75497787 38.31551562 C498.77799917 34.52741764 498.76420965 30.74117945 498.74108028 26.95312309 C498.75655652 25.86260368 498.77203275 24.77208426 498.78797796 23.6485188 C498.68930585 16.35451665 497.1859236 11.29642368 492 6 C486.93226694 2.17360766 481.91866739 1.41622125 475.71621037 1.49104881 C474.91782872 1.48463586 474.11944708 1.4782229 473.29687205 1.47161561 C470.62877628 1.45504807 467.96158231 1.46685127 465.29347229 1.47860718 C463.35844471 1.47256427 461.42342191 1.46478536 459.48840755 1.45542204 C454.1764373 1.43484287 448.86473674 1.43923042 443.55274427 1.44778323 C437.82188649 1.45271419 432.09109395 1.43469388 426.36026001 1.41970825 C415.13537849 1.39420087 403.91059263 1.39062847 392.68568701 1.39530878 C383.56313635 1.39887369 374.44061474 1.39537895 365.31806755 1.38685989 C364.02010555 1.38566952 362.72214356 1.38447914 361.38484938 1.38325269 C358.74812023 1.38082921 356.11139108 1.37840094 353.47466194 1.37596793 C335.76951859 1.36039239 318.06438773 1.35255608 300.35923862 1.36060143 C299.32092907 1.36107055 299.32092907 1.36107055 298.26164357 1.36154916 C294.7533402 1.3631607 291.24503688 1.36485225 287.73673356 1.36657576 C287.03998435 1.36691794 286.34323515 1.36726011 285.62537233 1.36761266 C284.21637709 1.36830597 282.80738186 1.36900303 281.39838662 1.36970383 C259.47150078 1.38041965 237.54477577 1.36455242 215.61791992 1.32763672 C190.97788777 1.28620165 166.33795904 1.26481238 141.69788975 1.27278769 C128.65318096 1.27661522 115.60861871 1.27160253 102.56393623 1.24335861 C91.45980454 1.21955973 80.3559096 1.21668882 69.25177474 1.24093895 C63.58577967 1.25273637 57.92021797 1.25486123 52.25425148 1.23093414 C47.06708608 1.2092834 41.88071762 1.21534156 36.69359004 1.24345751 C34.81750422 1.24877002 32.94135662 1.24395984 31.06533129 1.22798578 C17.21267004 0.80087453 17.21267004 0.80087453 6 8 Z " fill="#404040" transform="translate(0,0)"/>
<path d="M0 0 C0 239.58 0 479.16 0 726 C-4.95 726 -9.9 726 -15 726 C-15.33 725.01 -15.66 724.02 -16 723 C-15.20335937 722.67128906 -15.20335937 722.67128906 -14.390625 722.3359375 C-9.33381437 720.06590937 -6.68451568 718.04688949 -4 713 C-3.02625387 710.07876162 -2.87343193 708.22053356 -2.87004817 705.18024951 C-2.86475554 703.67887396 -2.86475554 703.67887396 -2.85935599 702.14716759 C-2.86055376 701.04231533 -2.86175154 699.93746307 -2.86298561 698.79913044 C-2.86033378 697.62464597 -2.85768196 696.4501615 -2.85494977 695.24008659 C-2.84857987 691.96006981 -2.8467205 688.68008522 -2.846727 685.40006335 C-2.84565943 681.83914033 -2.83887113 678.27822754 -2.8328203 674.71731013 C-2.82173416 667.64566477 -2.81609345 660.57402439 -2.81211142 653.50237187 C-2.80710661 645.03565151 -2.79637981 636.56894081 -2.78562968 628.10222614 C-2.75998681 607.63611383 -2.74496209 587.16999776 -2.73211922 566.703874 C-2.72786587 559.92673615 -2.72330018 553.14959858 -2.7185359 546.37246108 C-2.6932782 510.35426337 -2.67122544 474.33606522 -2.65880775 438.3178606 C-2.65588632 429.97094026 -2.65291883 421.62401992 -2.64990234 413.27709961 C-2.64953143 412.24007867 -2.64916053 411.20305773 -2.64877838 410.13461191 C-2.63661924 376.50179612 -2.60566958 342.86903262 -2.56398082 309.23624139 C-2.52121671 274.67297882 -2.49456978 240.10974387 -2.48933304 205.54645412 C-2.48859256 200.66720176 -2.48768187 195.78794944 -2.48667526 190.90869713 C-2.48638934 189.46823108 -2.48638934 189.46823108 -2.48609764 187.99866471 C-2.48258075 172.52888626 -2.46226764 157.0591732 -2.43587863 141.58941879 C-2.40976452 126.04674906 -2.40199364 110.50415506 -2.41297992 94.96146653 C-2.41896682 85.72263126 -2.41099219 76.48405244 -2.38314908 67.24525587 C-2.36593164 61.07681149 -2.36681678 54.9085425 -2.38251677 48.74009447 C-2.39094952 45.22342873 -2.39143786 41.70725327 -2.36990531 38.19063244 C-2.35090636 34.40333769 -2.36251827 30.61733905 -2.38196754 26.83007526 C-2.36911832 25.73692883 -2.3562691 24.6437824 -2.34303051 23.51751032 C-2.41821652 16.88754918 -3.23850192 11.87663551 -8 7 C-13.07963995 3.21117408 -18.06907297 2.41630357 -24.26207733 2.49219131 C-25.05809022 2.48588756 -25.85410311 2.47958381 -26.67423761 2.47308904 C-29.33418911 2.4568619 -31.9932358 2.46897961 -34.65319824 2.48101807 C-36.58226558 2.47514104 -38.51132825 2.46751307 -40.44038248 2.458287 C-45.73552331 2.43802236 -51.03039629 2.44258189 -56.32555819 2.45119452 C-62.03783982 2.45613675 -67.75005395 2.43805768 -73.46231079 2.42277527 C-83.35726972 2.39945309 -93.25215533 2.39071517 -103.1471405 2.39188385 C-117.45360968 2.39355247 -131.75998108 2.37322455 -146.06642419 2.34752855 C-169.27767695 2.30643583 -192.48891079 2.28309742 -215.70019531 2.27099609 C-238.2477385 2.2591985 -260.79524879 2.23902239 -283.34277344 2.20751953 C-284.03795128 2.20655158 -284.73312913 2.20558363 -285.44937297 2.20458635 C-292.4307206 2.19485642 -299.41206798 2.18495633 -306.39341519 2.17493158 C-364.9289253 2.09089444 -423.46444081 2.03555519 -482 2 C-482 1.67 -482 1.34 -482 1 C-423.62878236 0.8723377 -365.25756419 0.7449167 -306.88634532 0.61781773 C-299.98860195 0.60279835 -293.09085859 0.58777672 -286.19311523 0.57275391 C-285.50673869 0.57125906 -284.82036215 0.56976422 -284.11318632 0.56822408 C-261.90063728 0.51984686 -239.68808857 0.47132152 -217.47554002 0.42271865 C-193.98371063 0.37131742 -170.49188087 0.32008649 -147.00005072 0.26903296 C-132.93978268 0.23847108 -118.87951494 0.20777488 -104.81924757 0.17690456 C-95.16591711 0.15572302 -85.51258629 0.1347112 -75.85925517 0.11383021 C-70.29729649 0.10179428 -64.73533798 0.08968606 -59.1733799 0.07737541 C-54.06696455 0.06607471 -48.96054878 0.05499031 -43.85413262 0.0440678 C-42.02066194 0.04010967 -40.18719143 0.03607661 -38.35372112 0.03195482 C-37.0780033 0.02909288 -37.0780033 0.02909288 -35.7765134 0.02617311 C-34.6810236 0.02367895 -34.6810236 0.02367895 -33.5634027 0.02113441 C-22.37548253 -0.0010702 -11.18804955 0 0 0 Z " fill="#4C4C4C" transform="translate(500,0)"/>
<path d="M0 0 C158.07 0 316.14 0 479 0 C479 0.33 479 0.66 479 1 C478.02833519 1.00021737 477.05667038 1.00043474 476.05556118 1.00065869 C418.4785478 1.01397973 360.90159562 1.05362985 303.32462669 1.12685562 C296.41270711 1.13563938 289.50078723 1.14417804 282.58886719 1.15258789 C281.55714485 1.15384946 281.55714485 1.15384946 280.50457964 1.15513652 C258.21513911 1.18227678 235.92572636 1.19323659 213.63627059 1.19579524 C190.079164 1.19858738 166.52215333 1.21983837 142.96507728 1.26052457 C128.85406326 1.28430022 114.74319774 1.29331794 100.63216643 1.28351311 C90.95830059 1.27820116 81.28456794 1.29120888 71.61074002 1.3186629 C66.02777014 1.33396494 60.44509832 1.34115094 54.86211967 1.32659721 C49.74928045 1.31344734 44.6370189 1.32333737 39.52424477 1.35143773 C37.67617349 1.35754858 35.82805094 1.35525419 33.98000611 1.34362926 C20.15192515 1.05812349 20.15192515 1.05812349 8 7 C6.4234994 9.09009428 5.17841301 11.07406297 4.03515625 13.42578125 C3.69355469 13.94527344 3.35195313 14.46476563 3 15 C2.01 15 1.02 15 0 15 C0 10.05 0 5.1 0 0 Z " fill="#000000" transform="translate(0,0)"/>
<path d="M0 0 C0.33 0 0.66 0 1 0 C1 4.95 1 9.9 1 15 C-3.95 15 -8.9 15 -14 15 C-12.45620382 13.97080255 -10.9083859 12.94515908 -9.31640625 11.9921875 C-4.34809679 8.82751822 -2.16849931 5.42798274 0 0 Z " fill="#FFFFFF" transform="translate(499,711)"/>
<path d="M0 0 C1.02919745 1.54379618 2.05484092 3.0916141 3.0078125 4.68359375 C6.17248178 9.65190321 9.57201726 11.83150069 15 14 C15 14.33 15 14.66 15 15 C10.05 15 5.1 15 0 15 C0 10.05 0 5.1 0 0 Z " fill="#FFFFFF" transform="translate(0,711)"/>
<path d="M0 0 C4.95 0 9.9 0 15 0 C15 4.95 15 9.9 15 15 C13.97080255 13.45620382 12.94515908 11.9083859 11.9921875 10.31640625 C8.82751822 5.34809679 5.42798274 3.16849931 0 1 C0 0.67 0 0.34 0 0 Z " fill="#FFFFFF" transform="translate(485,0)"/>
<path d="M0 0 C4.95 0 9.9 0 15 0 C13.45620382 1.02919745 11.9083859 2.05484092 10.31640625 3.0078125 C5.34809679 6.17248178 3.16849931 9.57201726 1 15 C0.67 15 0.34 15 0 15 C0 10.05 0 5.1 0 0 Z " fill="#FFFFFF" transform="translate(0,0)"/>
<path d="M0 0 C7.26730945 0.03364495 11.78239909 1.91712587 17 7 C19.2728317 10.0541176 20 11.20047777 20 15 C19.34 15 18.68 15 18 15 C16.9921875 13.390625 16.9921875 13.390625 15.875 11.25 C13.08220906 6.57331458 9.98102111 4.90805244 5 3 C4.01 2.5875 3.02 2.175 2 1.75 C1.34 1.5025 0.68 1.255 0 1 C0 0.67 0 0.34 0 0 Z " fill="#111111" transform="translate(479,0)"/>
<path d="M0 0 C1.29233853 1.9385078 2.52697141 3.91732061 3.6875 5.9375 C7.05702922 10.39984951 11.35671369 13.09707419 17 14 C17 14.66 17 15.32 17 16 C10.51967023 15.72998626 6.71943856 13.39066868 2 9 C-0.0625 6.375 -0.0625 6.375 -1 4 C-0.6875 1.6875 -0.6875 1.6875 0 0 Z " fill="#0E0E0E" transform="translate(2,710)"/>
<path d="M0 0 C0.66 0.33 1.32 0.66 2 1 C1.56460604 5.93446488 -0.63296086 8.47991362 -4 12 C-8.12426036 15.1183432 -8.12426036 15.1183432 -11.3125 14.6875 C-11.869375 14.460625 -12.42625 14.23375 -13 14 C-10 12 -10 12 -7.0625 10.375 C-3.24760045 7.41650647 -1.80945617 4.38527025 0 0 Z " fill="#121212" transform="translate(497,710)"/>
<path d="M0 0 C0.99 0.33 1.98 0.66 3 1 C1.9171875 1.7425 1.9171875 1.7425 0.8125 2.5 C-2.65888511 5.58567566 -4.7163468 8.99631864 -7 13 C-7.66 12.67 -8.32 12.34 -9 12 C-7.18690951 6.71181939 -4.67111564 3.11407709 0 0 Z " fill="#0E0E0E" transform="translate(10,2)"/>
<path d="M0 0 C0.66 0.33 1.32 0.66 2 1 C-2.75 6.75 -2.75 6.75 -5 9 C-5.99 8.67 -6.98 8.34 -8 8 C-5.36 5.36 -2.72 2.72 0 0 Z " fill="#D5D5D5" transform="translate(207,427)"/>
<path d="M0 0 C0.66 0.33 1.32 0.66 2 1 C1.75 3.375 1.75 3.375 1 6 C-1.0625 7.3125 -1.0625 7.3125 -3 8 C-2.690625 7.236875 -2.38125 6.47375 -2.0625 5.6875 C-1.32106407 3.81210323 -0.63771783 1.91315348 0 0 Z " fill="#1C1C1C" transform="translate(497,710)"/>
</svg>
